HIERARCHY
ROOT Hips
{
	OFFSET 0.000000 0.000000 0.000000
	CHANNELS 6 Xposition Yposition Zposition Zrotation Yrotation Xrotation 
	JOINT LHipJoint
	{
		OFFSET 0.000000 0.000000 0.000000
		CHANNELS 3 Zrotation Yrotation Xrotation
		JOINT LeftUpLeg
		{
			OFFSET 1.363060 -1.794630 0.839290
			CHANNELS 3 Zrotation Yrotation Xrotation
			JOINT LeftLeg
			{
				OFFSET 2.448110 -6.726130 0.000000
				CHANNELS 3 Zrotation Yrotation Xrotation
				JOINT LeftFoot
				{
					OFFSET 2.562200 -7.039590 0.000000
					CHANNELS 3 Zrotation Yrotation Xrotation
					JOINT LeftToeBase
					{
						OFFSET 0.157640 -0.433110 2.322550
						CHANNELS 3 Zrotation Yrotation Xrotation
						End Site
						{
							OFFSET 0.000000 0.000000 0.000000
						}
					}
				}
			}
		}
	}
	JOINT RHipJoint
	{
		OFFSET 0.000000 0.000000 0.000000
		CHANNELS 3 Zrotation Yrotation Xrotation
		JOINT RightUpLeg
		{
			OFFSET -1.305520 -1.794630 0.839290
			CHANNELS 3 Zrotation Yrotation Xrotation
			JOINT RightLeg
			{
				OFFSET -2.542530 -6.985550 0.000000
				CHANNELS 3 Zrotation Yrotation Xrotation
				JOINT RightFoot
				{
					OFFSET -2.568260 -7.056230 0.000000
					CHANNELS 3 Zrotation Yrotation Xrotation
					JOINT RightToeBase
					{
						OFFSET -0.164730 -0.452590 2.363150
						CHANNELS 3 Zrotation Yrotation Xrotation
						End Site
						{
							OFFSET 0.000000 0.000000 0.000000
						}
					}
				}
			}
		}
	}
	JOINT LowerBack
	{
		OFFSET 0.000000 0.000000 0.000000
		CHANNELS 3 Zrotation Yrotation Xrotation
		JOINT Spine
		{
			OFFSET 0.028270 2.035590 -0.193380
			CHANNELS 3 Zrotation Yrotation Xrotation
			JOINT Spine1
			{
				OFFSET 0.056720 2.048850 -0.042750
				CHANNELS 3 Zrotation Yrotation Xrotation
				JOINT Neck
				{
					OFFSET 0.000000 0.000000 0.000000
					CHANNELS 3 Zrotation Yrotation Xrotation
					JOINT Neck1
					{
						OFFSET -0.054170 1.746240 0.172020
						CHANNELS 3 Zrotation Yrotation Xrotation
						JOINT Head
						{
							OFFSET 0.104070 1.761360 -0.123970
							CHANNELS 3 Zrotation Yrotation Xrotation
							End Site
							{
								OFFSET 0.000000 0.000000 0.000000
							}
						}
					}
				}
				JOINT LeftShoulder
				{
					OFFSET 0.000000 0.000000 0.000000
					CHANNELS 3 Zrotation Yrotation Xrotation
					JOINT LeftArm
					{
						OFFSET 3.362410 1.200890 -0.311210
						CHANNELS 3 Zrotation Yrotation Xrotation
						JOINT LeftForeArm
						{
							OFFSET 4.983000 -0.000000 -0.000000
							CHANNELS 3 Zrotation Yrotation Xrotation
							JOINT LeftHand
							{
								OFFSET 3.483560 -0.000000 -0.000000
								CHANNELS 3 Zrotation Yrotation Xrotation
								JOINT LeftFingerBase
								{
									OFFSET 0.000000 0.000000 0.000000
									CHANNELS 3 Zrotation Yrotation Xrotation
									JOINT LeftHandIndex1
									{
										OFFSET 0.715260 -0.000000 -0.000000
										CHANNELS 3 Zrotation Yrotation Xrotation
										End Site
										{
											OFFSET 0.000000 0.000000 0.000000
										}
									}
								}
								JOINT LThumb
								{
									OFFSET 0.000000 0.000000 0.000000
									CHANNELS 3 Zrotation Yrotation Xrotation
									End Site
									{
										OFFSET 0.000000 0.000000 0.000000
									}
								}
							}
						}
					}
				}
				JOINT RightShoulder
				{
					OFFSET 0.000000 0.000000 0.000000
					CHANNELS 3 Zrotation Yrotation Xrotation
					JOINT RightArm
					{
						OFFSET -3.136600 1.374050 -0.404650
						CHANNELS 3 Zrotation Yrotation Xrotation
						JOINT RightForeArm
						{
							OFFSET -5.241900 -0.000000 -0.000000
							CHANNELS 3 Zrotation Yrotation Xrotation
							JOINT RightHand
							{
								OFFSET -3.444170 -0.000000 -0.000000
								CHANNELS 3 Zrotation Yrotation Xrotation
								JOINT RightFingerBase
								{
									OFFSET 0.000000 0.000000 0.000000
									CHANNELS 3 Zrotation Yrotation Xrotation
									JOINT RightHandIndex1
									{
										OFFSET -0.622530 -0.000000 -0.000000
										CHANNELS 3 Zrotation Yrotation Xrotation
										End Site
										{
											OFFSET 0.000000 0.000000 0.000000
										}
									}
								}
								JOINT RThumb
								{
									OFFSET 0.000000 0.000000 0.000000
									CHANNELS 3 Zrotation Yrotation Xrotation
									End Site
									{
										OFFSET 0.000000 0.000000 0.000000
									}
								}
							}
						}
					}
				}
			}
		}
	}
}
MOTION
Frames: 12
Frame Time: 0.008333
-0.898862 18.310065 5.614698 -4.739932 -1.632981 -0.919128 1.712623 4.088020 3.618013 -9.447512 -8.653871 -5.428755 1.212431 7.293657 23.991558 -0.535478 5.641976 -12.686681 8.467300 -16.452400 -54.229000 -3.125095 -4.169943 2.490784 21.367218 -2.903074 6.265695 0.365994 0.997993 1.696719 0.405643 -4.911881 -10.855343 -0.051900 1.470500 -4.044300 3.542653 1.401195 -1.280685 2.861484 0.930869 22.895418 -3.884291 0.993902 -17.132498 -2.899266 -3.765397 -27.111435 5.352666 -4.827021 33.175553 0.847200 -1.392400 10.511200 2.491821 -6.910424 0.307170 -92.470372 10.070320 24.661979 25.711352 -35.019747 -7.025289 0.560565 -0.064547 11.491629 5.876534 -30.322750 -2.695400 -7.125000 0.000000 0.000000 -14.812500 0.341300 15.243400 -4.800114 9.105528 2.971705 95.607800 -12.636393 16.957642 -31.965093 39.860739 -9.029680 0.584123 -3.068913 18.499821 -10.483090 -28.794975 5.341400 7.125000 0.000000 0.000000 18.965400 -55.342000 -4.944800 
-0.897391 18.309379 5.618817 -4.756641 -1.641719 -0.900477 1.709481 4.087228 3.614546 -9.429149 -8.598872 -5.481510 1.220549 7.311374 24.038433 -0.533539 5.631377 -12.671667 8.490500 -16.468500 -54.310900 -3.129959 -4.166683 2.485038 21.387185 -2.898332 6.267157 0.366046 0.998276 1.697112 0.401897 -4.897260 -10.872358 -0.050400 1.448500 -3.983800 3.597859 1.401944 -1.228118 2.819444 0.944746 22.851218 -3.906300 0.990091 -17.152256 -2.939228 -3.757428 -27.119182 5.474372 -4.838655 33.248562 0.879700 -1.379500 10.530000 2.499119 -6.912336 0.315281 -92.446485 10.154815 24.751554 25.638072 -34.947596 -6.997811 0.569621 -0.063322 11.620524 6.306940 -30.451140 -2.922200 -7.125000 0.000000 0.000000 -14.578600 0.165700 15.031700 -4.789399 9.106053 2.972661 95.585551 -12.613540 16.937847 -31.904642 39.787832 -8.974800 0.610181 -3.065741 18.608433 -9.977798 -28.644190 5.102500 7.125000 0.000000 0.000000 19.367700 -55.130600 -4.954400 
-0.896018 18.308889 5.623916 -4.727453 -1.627939 -0.892152 1.704009 4.087246 3.615287 -9.459557 -8.533445 -5.517862 1.221862 7.312549 24.041654 -0.551263 5.676470 -12.579721 8.543100 -16.504500 -54.496100 -3.136466 -4.168071 2.485949 21.358516 -2.914696 6.271057 0.366022 0.998796 1.697397 0.401201 -4.895317 -10.878822 -0.052200 1.474300 -4.054800 3.598618 1.396074 -1.220396 2.748650 0.943546 22.872578 -3.871843 0.990046 -17.164929 -2.908532 -3.744474 -27.137355 5.490240 -4.834848 33.275699 0.882800 -1.373100 10.539300 2.508904 -6.911526 0.314986 -92.458994 10.208672 24.812463 25.589185 -34.900633 -6.980157 0.576619 -0.059752 11.625498 6.646155 -30.518959 -3.099700 -7.125000 0.000000 0.000000 -14.393200 0.057000 14.855500 -4.781312 9.107103 2.973997 95.550528 -12.640510 16.957403 -31.963321 39.832927 -8.993310 0.669288 -3.074017 18.584798 -9.078950 -28.971898 4.785400 7.125000 0.000000 0.000000 20.413000 -55.299500 -5.323600 
-0.896312 18.309085 5.628329 -4.693339 -1.595638 -0.882114 1.701949 4.088452 3.621419 -9.483978 -8.479342 -5.570531 1.225875 7.314022 24.050757 -0.556465 5.668262 -12.482619 8.577800 -16.528300 -54.618400 -3.138466 -4.171991 2.494272 21.326633 -2.943588 6.259248 0.365803 0.999543 1.697484 0.403383 -4.900029 -10.861638 -0.055500 1.520300 -4.181600 3.557726 1.385753 -1.261147 2.718316 0.924569 22.969473 -3.826661 0.989591 -17.169877 -2.877637 -3.747339 -27.230787 5.431462 -4.830859 33.310664 0.867300 -1.377200 10.565300 2.521323 -6.906898 0.308744 -92.491366 10.208684 24.789888 25.560705 -34.874362 -6.967469 0.577054 -0.062923 11.632974 6.624424 -30.583684 -3.093600 -7.125000 0.000000 0.000000 -14.408200 -0.000400 14.886800 -4.790157 9.104039 2.970919 95.518661 -12.631161 16.945041 -31.988475 39.886599 -9.048569 0.649171 -3.087777 18.501293 -9.445032 -29.464472 5.024400 7.125000 0.000000 0.000000 20.346800 -55.798800 -5.556100 
-0.896312 18.308496 5.632350 -4.670849 -1.598091 -0.874822 1.696791 4.090590 3.628823 -9.489414 -8.406998 -5.606782 1.229664 7.313349 24.052476 -0.540125 5.585365 -12.427257 8.565800 -16.520000 -54.576000 -3.142832 -4.174067 2.500652 21.307857 -2.939522 6.254311 0.365760 1.000455 1.697730 0.402109 -4.893318 -10.866381 -0.058400 1.559000 -4.288400 3.551751 1.384129 -1.285634 2.667420 0.922992 23.061212 -3.798364 0.991878 -17.183343 -2.863350 -3.755171 -27.354198 5.406321 -4.838415 33.407732 0.859700 -1.380300 10.612200 2.539540 -6.901203 0.305218 -92.525727 10.183592 24.701417 25.523141 -34.838674 -6.947174 0.574244 -0.068141 11.729947 6.508257 -30.587354 -3.034600 -7.125000 0.000000 0.000000 -14.472700 0.013900 14.954300 -4.800162 9.098412 2.965280 95.482167 -12.568327 16.944865 -31.902495 39.852711 -9.070084 0.540108 -3.088850 18.445624 -11.170998 -29.549908 5.778600 7.125000 0.000000 0.000000 18.726600 -56.136300 -5.245200 
-0.895037 18.307418 5.637155 -4.669506 -1.625240 -0.875618 1.691920 4.091919 3.632959 -9.486329 -8.385228 -5.596776 1.232108 7.315227 24.059816 -0.526290 5.533213 -12.441266 8.542900 -16.504400 -54.495400 -3.147089 -4.174097 2.502178 21.306496 -2.917766 6.271238 0.366357 1.001033 1.697888 0.403390 -4.908965 -10.885442 -0.062100 1.607900 -4.423300 3.559351 1.382214 -1.272270 2.614750 0.925773 23.097586 -3.768564 0.992912 -17.205011 -2.728455 -3.736054 -27.421679 5.245727 -4.804599 33.523024 0.812000 -1.376500 10.647900 2.543181 -6.893906 0.306056 -92.550006 10.193018 24.590734 25.492333 -34.804727 -6.928972 0.571559 -0.070320 11.844237 6.458479 -30.524157 -3.004300 -7.125000 0.000000 0.000000 -14.497300 0.082200 14.963800 -4.812763 9.101556 2.963229 95.459435 -12.520330 16.980816 -31.829251 39.794855 -9.038238 0.510430 -3.083948 18.440238 -11.612899 -29.345165 5.925700 7.125000 0.000000 0.000000 18.181200 -56.013500 -5.030200 
-0.893174 18.306339 5.642156 -4.729527 -1.670182 -0.893569 1.707910 4.094352 3.630460 -9.449424 -8.377669 -5.555502 1.235773 7.320712 24.081621 -0.519748 5.521979 -12.495575 8.532300 -16.497200 -54.458200 -3.131991 -4.171770 2.502975 21.344863 -2.887445 6.320750 0.366825 1.000511 1.697680 0.405948 -4.927791 -10.890493 -0.063400 1.624700 -4.469600 3.536530 1.381677 -1.203985 2.765754 0.913024 23.070557 -3.807692 0.988283 -17.233978 -2.635523 -3.715257 -27.371790 5.083637 -4.754684 33.542030 0.769700 -1.371200 10.638600 2.516361 -6.888388 0.307419 -92.588669 10.234152 24.478238 25.439525 -34.751340 -6.905353 0.572016 -0.075533 11.984639 6.493803 -30.599854 -3.028200 -7.125000 0.000000 0.000000 -14.480600 0.008400 14.964400 -4.841363 9.110043 2.966026 95.446695 -12.520637 16.995351 -31.838932 39.763739 -8.977904 0.590205 -3.076892 18.519507 -10.306036 -28.991178 5.302000 7.125000 0.000000 0.000000 19.246500 -55.492100 -5.093300 
-0.891605 18.305456 5.645000 -4.816632 -1.698546 -0.897900 1.739652 4.096401 3.621152 -9.390654 -8.310559 -5.560836 1.243038 7.328877 24.112679 -0.508757 5.476072 -12.495198 8.532100 -16.497000 -54.457600 -3.102382 -4.167968 2.503216 21.398511 -2.867634 6.353258 0.366449 0.998906 1.697260 0.401749 -4.906709 -10.893948 -0.058400 1.559800 -4.290600 3.490843 1.386175 -1.097075 3.070304 0.893475 22.992240 -3.905991 0.981262 -17.266006 -2.665255 -3.694569 -27.251564 5.045631 -4.703060 33.446526 0.771100 -1.357200 10.590700 2.471045 -6.883763 0.308380 -92.639372 10.278018 24.441545 25.413824 -34.728805 -6.895502 0.572436 -0.079167 12.058780 6.516827 -30.678857 -3.046300 -7.125000 0.000000 0.000000 -14.471000 -0.068100 14.973500 -4.871962 9.114925 2.973853 95.400125 -12.550029 17.011791 -31.893870 39.777368 -8.963240 0.646156 -3.069761 18.545923 -9.430033 -28.817099 4.904200 7.125000 0.000000 0.000000 19.990800 -55.208200 -5.161700 
-0.890820 18.305358 5.646667 -4.848110 -1.701097 -0.857919 1.753323 4.094971 3.612524 -9.364847 -8.241437 -5.633446 1.248737 7.338620 24.139455 -0.508375 5.460881 -12.448081 8.549500 -16.508900 -54.518800 -3.090650 -4.165365 2.500472 21.422096 -2.854671 6.324335 0.365831 0.997687 1.696777 0.397183 -4.877605 -10.887496 -0.054300 1.504100 -4.137200 3.479220 1.398933 -1.032992 3.200851 0.902014 22.925638 -3.958803 0.984586 -17.280856 -2.723647 -3.687433 -27.193923 5.089132 -4.686454 33.355342 0.789800 -1.348900 10.556300 2.449569 -6.881660 0.309985 -92.671110 10.279223 24.416637 25.414580 -34.732035 -6.895059 0.570300 -0.080952 12.113116 6.459179 -30.670900 -3.016600 -7.125000 0.000000 0.000000 -14.502000 -0.052300 15.003800 -4.876215 9.113025 2.978642 95.384283 -12.553382 16.980099 -31.952252 39.823346 -8.989692 0.662556 -3.069839 18.472667 -9.227219 -28.901178 4.833800 7.125000 0.000000 0.000000 20.234100 -55.256100 -5.252300 
-0.889349 18.305064 5.649413 -4.831578 -1.714323 -0.859411 1.740073 4.097481 3.620105 -9.375193 -8.236627 -5.642025 1.251287 7.346060 24.158881 -0.514112 5.483858 -12.444062 8.562200 -16.517600 -54.563300 -3.103950 -4.164997 2.501967 21.412889 -2.847101 6.331378 0.365573 0.999279 1.697454 0.395325 -4.860995 -10.878595 -0.057900 1.552100 -4.269500 3.551404 1.413894 -1.008963 3.081088 0.938308 22.996616 -3.960049 0.994083 -17.310539 -2.759822 -3.710060 -27.242930 5.146609 -4.723269 33.339938 0.800200 -1.359500 10.564000 2.475768 -6.880753 0.306540 -92.664531 10.247688 24.375890 25.427478 -34.750805 -6.899239 0.566485 -0.083833 12.139426 6.283649 -30.648991 -2.925500 -7.125000 0.000000 0.000000 -14.598200 -0.008100 15.098700 -4.868707 9.101012 2.968709 95.429219 -12.500478 16.939619 -31.983501 39.865862 -9.010715 0.663318 -3.070438 18.380534 -9.269555 -28.941330 4.857700 7.125000 0.000000 0.000000 20.217200 -55.297700 -5.268500 
-0.887094 18.303985 5.653434 -4.781512 -1.722852 -0.903681 1.712310 4.102210 3.636485 -9.413440 -8.262912 -5.582112 1.252932 7.350283 24.171150 -0.505545 5.462289 -12.485490 8.549500 -16.508900 -54.518800 -3.129276 -4.165783 2.504506 21.368881 -2.862607 6.385158 0.365747 1.002395 1.699147 0.392027 -4.848965 -10.903000 -0.060600 1.588400 -4.369400 3.662058 1.420772 -0.980839 2.825154 0.979210 23.127011 -3.919003 1.002438 -17.361029 -2.703957 -3.735873 -27.342378 5.072909 -4.754882 33.413873 0.769600 -1.379200 10.600600 2.518984 -6.879444 0.302501 -92.638208 10.235118 24.363551 25.462053 -34.790517 -6.913621 0.562792 -0.085663 12.141738 6.100431 -30.622506 -2.830300 -7.125000 0.000000 0.000000 -14.698600 0.040500 15.197100 -4.857953 9.088464 2.955713 95.476481 -12.453255 16.967355 -32.004819 39.897748 -9.019531 0.656307 -3.066226 18.336513 -9.413495 -28.810727 4.895200 7.125000 0.000000 0.000000 20.005600 -55.199800 -5.161600 
-0.885427 18.303691 5.657455 -4.739078 -1.701734 -0.895449 1.699458 4.102508 3.642503 -9.453198 -8.284153 -5.573302 1.252865 7.350079 24.170653 -0.497301 5.434513 -12.502602 8.527600 -16.493900 -54.441600 -3.139553 -4.167118 2.505657 21.325344 -2.884611 6.381050 0.365985 1.003337 1.699662 0.391366 -4.854408 -10.927073 -0.062800 1.616600 -4.447300 3.690532 1.417907 -0.982605 2.711134 0.987425 23.181184 -3.887427 1.004547 -17.377341 -2.717054 -3.760655 -27.430328 5.054656 -4.782365 33.528270 0.762600 -1.392400 10.645400 2.541960 -6.879750 0.300910 -92.661932 10.168962 24.273600 25.405981 -34.739728 -6.888883 0.562518 -0.091236 12.265359 6.105890 -30.699814 -2.838800 -7.125000 0.000000 0.000000 -14.698400 -0.030800 15.215500 -4.849546 9.082851 2.952994 95.468273 -12.444370 17.045401 -32.063949 39.937458 -9.022073 0.713211 -3.065170 18.323011 -8.547137 -28.851462 4.541100 7.125000 0.000000 0.000000 20.857000 -55.113400 -5.350800 
